<svg fill="#ffffff" height="256px" width="256px" version="1.1" id="Layer_1"
	xmlns="http://www.w3.org/2000/svg" xmlns:xlink="http://www.w3.org/1999/xlink"
	viewBox="0 0 512 512" xml:space="preserve"><g id="SVGRepo_bgCarrier" stroke-width="0"></g><g id="SVGRepo_tracerCarrier" stroke-linecap="round" stroke-linejoin="round"></g><g id="SVGRepo_iconCarrier"> <g> <g> <path d="M385.586,312.635l-49-98.956H104.055L55.58,311.578H0v139.33h40.732c7.384,27.652,32.64,48.085,62.588,48.085 c29.948,0,55.204-20.431,62.588-48.085h176.772c7.384,27.652,32.64,48.085,62.588,48.085s55.204-20.431,62.588-48.085H512V325.993 L385.586,312.635z M237.016,247.07h78.844l31.942,64.508H237.016V247.07z M124.781,247.07h78.844v64.508H92.84L124.781,247.07z M103.319,465.601c-17.308,0-31.389-14.081-31.389-31.389s14.081-31.389,31.389-31.389c17.308,0,31.389,14.081,31.389,31.389 S120.627,465.601,103.319,465.601z M405.266,465.601c-17.308,0-31.389-14.081-31.389-31.389s14.081-31.389,31.389-31.389 s31.389,14.081,31.389,31.389S422.574,465.601,405.266,465.601z M478.609,417.516h-10.755 c-7.384-27.652-32.64-48.085-62.588-48.085s-55.204,20.432-62.588,48.085H165.907c-7.384-27.652-32.64-48.085-62.588-48.085 s-55.204,20.432-62.588,48.085h-7.341v-72.547h32.552h10.364h297.514l104.787,11.073V417.516z"></path> </g> </g> <g> <g> <path d="M220.321,136.966c-20.9-0.001-40.547,8.137-55.324,22.915l23.612,23.611c8.47-8.47,19.732-13.135,31.712-13.135 s23.241,4.665,31.713,13.135l23.611-23.611C260.868,145.103,241.22,136.966,220.321,136.966z"></path> </g> </g> <g> <g> <path d="M220.32,13.008c-54.008,0-104.783,21.032-142.973,59.222l23.611,23.611c31.883-31.883,74.273-49.441,119.362-49.441 c45.088,0,87.479,17.558,119.363,49.441l23.611-23.611C325.103,34.04,274.328,13.008,220.32,13.008z"></path> </g> </g> <g> <g> <path d="M220.32,74.987c-37.453,0-72.665,14.585-99.148,41.068l23.611,23.611c20.176-20.176,47.003-31.288,75.537-31.288 c28.534,0,55.361,11.112,75.538,31.289l23.611-23.612C292.985,89.572,257.773,74.987,220.32,74.987z"></path> </g> </g> </g></svg>
