<svg width="256px" height="256px" viewBox="0 0 24 24" id="Layer_1" data-name="Layer 1"
	xmlns="http://www.w3.org/2000/svg" fill="#ffffff">
	<g id="SVGRepo_bgCarrier" stroke-width="0"></g>
	<g id="SVGRepo_tracerCarrier" stroke-linecap="round" stroke-linejoin="round"></g>
	<g id="SVGRepo_iconCarrier">
		<defs>
			<style>
				.cls-1{fill:none;stroke:#ffffff;stroke-miterlimit:10;stroke-width:1.91px;}</style>
		</defs>
		<path class="cls-1"
			d="M18.68,1.5h1.91A1.9,1.9,0,0,1,22.5,3.41V16.77a1.9,1.9,0,0,1-1.91,1.91H3.41A1.9,1.9,0,0,1,1.5,16.77V3.41A1.9,1.9,0,0,1,3.41,1.5H18.68Z"></path>
		<line class="cls-1" x1="12" y1="22.5" x2="12" y2="18.68"></line>
		<line class="cls-1" x1="16.77" y1="22.5" x2="7.23" y2="22.5"></line>
		<line class="cls-1" x1="1.5" y1="14.86" x2="22.5" y2="14.86"></line>
		<circle class="cls-1" cx="12" cy="8.18" r="2.86"></circle>
		<line class="cls-1" x1="12" y1="5.32" x2="12" y2="3.41"></line>
		<line class="cls-1" x1="12" y1="12.95" x2="12" y2="11.05"></line>
		<line class="cls-1" x1="9.52" y1="6.75" x2="7.87" y2="5.8"></line>
		<line class="cls-1" x1="16.13" y1="10.57" x2="14.48" y2="9.61"></line>
		<line class="cls-1" x1="16.13" y1="5.8" x2="14.48" y2="6.75"></line>
		<line class="cls-1" x1="9.52" y1="9.61" x2="7.87" y2="10.57"></line>
	</g>
</svg>
