<!DOCTYPE svg PUBLIC "-//W3C//DTD SVG 1.1//EN" "http://www.w3.org/Graphics/SVG/1.1/DTD/svg11.dtd">
<!-- Uploaded to: SVG Repo, www.svgrepo.com, Transformed by: SVG Repo Mixer Tools -->
<svg fill="#ffffff" width="256px" height="256px" viewBox="0 0 24 24" xmlns="http://www.w3.org/2000/svg">
<g id="SVGRepo_bgCarrier" stroke-width="0"/>
<g id="SVGRepo_tracerCarrier" stroke-linecap="round" stroke-linejoin="round"/>
<g id="SVGRepo_iconCarrier">
<path d="M16 2H8c-1.103 0-2 .897-2 2v16c0 1.103.897 2 2 2h8c1.103 0 2-.897 2-2V4c0-1.103-.897-2-2-2zM8 20V4h8l.001 16H8zM3 7h2V5H3v.5H2v1h1zm18-2h-2v2h2v-.5h1v-1h-1zM3 11h2V9H3v.5H2v1h1zm18-2h-2v2h2v-.5h1v-1h-1zM3 15h2v-2H3v.5H2v1h1zm18-2h-2v2h2v-.5h1v-1h-1zM3 19h2v-2H3v.5H2v1h1zm18-2h-2v2h2v-.5h1v-1h-1z"/>
</g>
</svg>