<!DOCTYPE svg PUBLIC "-//W3C//DTD SVG 1.1//EN" "http://www.w3.org/Graphics/SVG/1.1/DTD/svg11.dtd">
<!-- Uploaded to: SVG Repo, www.svgrepo.com, Transformed by: SVG Repo Mixer Tools -->
<svg width="256px" height="256px" viewBox="0 0 64 64" xmlns="http://www.w3.org/2000/svg" xmlns:xlink="http://www.w3.org/1999/xlink" aria-hidden="true" role="img" class="iconify iconify--emojione-monotone" preserveAspectRatio="xMidYMid meet" fill="#f5fffa" stroke="#f5fffa">
<g id="SVGRepo_bgCarrier" stroke-width="0"/>
<g id="SVGRepo_tracerCarrier" stroke-linecap="round" stroke-linejoin="round"/>
<g id="SVGRepo_iconCarrier">
<path d="M60.669 56.129c-.346-.792-19.114-11.958-19.134-11.972c-2.648-1.947-2.973-3.841-.836-4.929c1.833-.933 3.408-3.929 4.595-7.137a.97.97 0 0 0 .677.048c4.985-1.456 5.075-11.518 1.74-9.739c3.117-27.194-34.535-27.208-31.42.001c-3.336-1.781-3.246 8.282 1.74 9.738a.978.978 0 0 0 .676-.047c1.186 3.207 2.76 6.203 4.592 7.136c2.154 1.095 1.729 2.896-.887 4.97c-.871.691-13.025 7.465-16.453 9.758a.115.115 0 0 0-.018.01h.002c-1.416.948-2.424 1.737-2.609 2.163C2.355 58.383 2 62 2 62h60.001s-.354-3.617-1.332-5.871" fill="#f5fffa"/>
</g>
</svg>